<svg width="114" height="114" viewBox="0 0 114 114" fill="none" xmlns="http://www.w3.org/2000/svg">
<g filter="url(#filter0_d_12_1093)">
<path fill-rule="evenodd" clip-rule="evenodd" d="M20 54C20 33.5655 36.5655 17 57 17C77.4345 17 94 33.5655 94 54C94 74.4345 77.4345 91 57 91C36.5655 91 20 74.4345 20 54Z" fill="#444444"/>
</g>
<path fill-rule="evenodd" clip-rule="evenodd" d="M69.3932 38.9076H68.7076C68.3888 38.9076 68.0682 38.9407 67.7549 39.0071L39.884 44.9173C37.7758 45.3641 36.2444 47.2534 36.2444 49.4089C36.2444 51.9403 38.3047 54 40.8367 54H41.5223C41.8411 54 42.1617 53.9669 42.475 53.9006L70.3459 47.9903C72.4542 47.5436 73.9855 45.6542 73.9855 43.4987C73.9855 40.9673 71.9253 38.9076 69.3932 38.9076Z" fill="#89D3DE"/>
<path fill-rule="evenodd" clip-rule="evenodd" d="M73.1614 54H72.4759C72.1571 54 71.8364 54.0332 71.5231 54.0995L43.6522 60.0096C41.544 60.4565 40.0126 62.3458 40.0126 64.5013C40.0126 67.0327 42.0729 69.0925 44.6049 69.0925H45.2905C45.6093 69.0925 45.9299 69.0593 46.2432 68.993L74.1142 63.0827C76.2224 62.6359 77.7538 60.7467 77.7538 58.5911C77.7538 56.0597 75.6935 54 73.1614 54H73.1614Z" fill="#E4346B"/>
<path fill-rule="evenodd" clip-rule="evenodd" d="M71.9921 64.7558L66.0819 36.8849C65.634 34.7758 63.7457 33.2453 61.5901 33.2453C59.0588 33.2453 56.999 35.3056 56.999 37.8377V38.5241C56.999 38.8475 57.0322 39.1691 57.0985 39.476L63.0087 67.3469C63.4565 69.4561 65.3448 70.9865 67.5004 70.9865C70.0317 70.9865 72.0915 68.9262 72.0915 66.3942V65.7077C72.0915 65.3844 72.0583 65.0627 71.9921 64.7558V64.7558Z" fill="#EEBB43"/>
<path fill-rule="evenodd" clip-rule="evenodd" d="M56.8996 68.5239L50.9893 40.653C50.5417 38.5439 48.6533 37.0135 46.4977 37.0135C43.9663 37.0135 41.9066 39.0737 41.9066 41.6058V42.2922C41.9066 42.6157 41.9398 42.9372 42.0061 43.2441L47.9163 71.115C48.364 73.2242 50.2524 74.7546 52.4079 74.7546C54.9393 74.7546 56.9991 72.6943 56.9991 70.1623V69.4758C56.9991 69.1525 56.9659 68.8308 56.8996 68.5239H56.8996Z" fill="#77C9AD"/>
<path fill-rule="evenodd" clip-rule="evenodd" d="M47.4154 68.7519L45.4783 59.62L54.6004 57.685L56.5375 66.817L47.4154 68.7519Z" fill="#E8CCE8"/>
<path fill-rule="evenodd" clip-rule="evenodd" d="M62.619 65.521L60.6841 56.3987L69.8162 54.4618L71.7511 63.5841L62.619 65.521Z" fill="#DE353A"/>
<path fill-rule="evenodd" clip-rule="evenodd" d="M44.1821 53.5387L42.247 44.4166L51.3789 42.4794L53.314 51.6016L44.1821 53.5387Z" fill="#2BA085"/>
<path fill-rule="evenodd" clip-rule="evenodd" d="M59.3971 50.3146L57.46 41.1827L66.5821 39.2476L68.5193 48.3796L59.3971 50.3146Z" fill="#92AE43"/>
<path fill-rule="evenodd" clip-rule="evenodd" d="M54.6013 57.6895L53.3101 51.6017L59.3979 50.3105L60.6891 56.3983L54.6013 57.6895ZM73.1646 54H72.479C72.1602 54 71.8396 54.0332 71.5263 54.0995L69.8135 54.4628L68.5223 48.3751L70.3432 47.9888C72.4515 47.5419 73.9828 45.6521 73.9828 43.496C73.9828 40.964 71.9225 38.9038 69.3905 38.9038H68.7049C68.3861 38.9038 68.0655 38.9369 67.7522 39.0033L66.5869 39.2504L66.0845 36.8822C65.6366 34.7731 63.7479 33.2427 61.5918 33.2427C59.0598 33.2427 56.9995 35.3029 56.9995 37.8349V38.5214C56.9995 38.8448 57.0327 39.1664 57.099 39.4732L57.4623 41.186L51.3746 42.4772L50.9883 40.6563C50.5405 38.5472 48.6516 37.0167 46.4955 37.0167C43.9635 37.0167 41.9033 39.077 41.9033 41.609V42.2954C41.9033 42.6189 41.9364 42.9404 42.0028 43.2473L42.2499 44.4126L39.8817 44.915C37.7735 45.3619 36.2422 47.2517 36.2422 49.4077C36.2422 51.9397 38.3024 54 40.8344 54H41.52C41.8388 54 42.1594 53.9668 42.4727 53.9005L44.1855 53.5372L45.4767 59.6249L43.6558 60.0112C41.5476 60.4582 40.0163 62.3478 40.0163 64.504C40.0163 67.036 42.0765 69.0962 44.6085 69.0962H45.2941C45.6129 69.0962 45.9335 69.0631 46.2468 68.9967L47.4121 68.7496L47.9145 71.1178C48.3623 73.2269 50.2512 74.7573 52.4073 74.7573C54.9393 74.7573 56.9995 72.6971 56.9995 70.1651V69.4786C56.9995 69.1552 56.9663 68.8336 56.9 68.5268L56.5367 66.814L62.6244 65.5228L63.0107 67.3437C63.4586 69.4529 65.3474 70.9833 67.5035 70.9833C70.0355 70.9833 72.0958 68.923 72.0958 66.391V65.7046C72.0958 65.3812 72.0626 65.0596 71.9963 64.7528L71.7491 63.5874L74.1173 63.085C76.2255 62.6381 77.7569 60.7484 77.7569 58.5923C77.7569 56.0603 75.6966 54 73.1646 54L73.1646 54Z" fill="url(#paint0_linear_12_1093)"/>
<defs>
<filter id="filter0_d_12_1093" x="0" y="0" width="114" height="114" filterUnits="userSpaceOnUse" color-interpolation-filters="sRGB">
<feFlood flood-opacity="0" result="BackgroundImageFix"/>
<feColorMatrix in="SourceAlpha" type="matrix" values="0 0 0 0 0 0 0 0 0 0 0 0 0 0 0 0 0 0 127 0" result="hardAlpha"/>
<feOffset dy="3"/>
<feGaussianBlur stdDeviation="10"/>
<feColorMatrix type="matrix" values="0 0 0 0 0 0 0 0 0 0 0 0 0 0 0 0 0 0 0.11 0"/>
<feBlend mode="normal" in2="BackgroundImageFix" result="effect1_dropShadow_12_1093"/>
<feBlend mode="normal" in="SourceGraphic" in2="effect1_dropShadow_12_1093" result="shape"/>
</filter>
<linearGradient id="paint0_linear_12_1093" x1="28.85" y1="64.25" x2="67.25" y2="82.15" gradientUnits="userSpaceOnUse">
<stop stop-color="white" stop-opacity="0.2"/>
<stop offset="1" stop-color="white" stop-opacity="0.01"/>
</linearGradient>
</defs>
</svg>
